<svg viewBox="0 0 600 200" xmlns="http://www.w3.org/2000/svg">
  <defs>
    <linearGradient id="g" x1="0" x2="1">
      <stop offset="0%" stop-color="#0f766e" stop-opacity="0.3"/>
      <stop offset="100%" stop-color="#22c55e" stop-opacity="0.2"/>
    </linearGradient>
  </defs>
  <rect width="600" height="200" fill="#0f1b21"/>
  <rect x="10" y="10" width="580" height="180" rx="16" fill="url(#g)" stroke="#12313a"/>
  <g fill="#e2e8f0">
    <circle cx="80" cy="100" r="34" fill="#0f766e"/>
    <rect x="140" y="70" width="320" height="18" rx="9"/>
    <rect x="140" y="100" width="260" height="14" rx="7" opacity="0.8"/>
    <rect x="140" y="122" width="200" height="12" rx="6" opacity="0.6"/>
  </g>
</svg>
<svg xmlns="http://www.w3.org/2000/svg" width="512" height="512" viewBox="0 0 512 512">
  <defs>
    <linearGradient id="g" x1="0" x2="1" y1="0" y2="1">
      <stop offset="0%" stop-color="#0f766e"/>
      <stop offset="100%" stop-color="#22c55e"/>
    </linearGradient>
  </defs>
  <rect width="512" height="512" fill="#0b0f12"/>
  <circle cx="256" cy="256" r="160" fill="url(#g)" opacity="0.2"/>
  <g fill="#e2e8f0">
    <rect x="136" y="180" width="240" height="160" rx="12" fill="#10171b" stroke="#22c55e" stroke-width="3"/>
    <rect x="156" y="200" width="200" height="20" rx="4" opacity="0.9"/>
    <rect x="156" y="230" width="180" height="16" rx="4" opacity="0.8"/>
    <rect x="156" y="254" width="160" height="16" rx="4" opacity="0.7"/>
    <rect x="156" y="278" width="140" height="16" rx="4" opacity="0.6"/>
  </g>
  <text x="50%" y="420" fill="#22c55e" font-family="Segoe UI, Roboto, Arial" font-size="28" text-anchor="middle">Smart Education 2.0</text>
</svg>

